<?xml version="1.0" encoding="UTF-8" standalone="no"?>
<svg
   xmlns:dc="http://purl.org/dc/elements/1.1/"
   xmlns:cc="http://creativecommons.org/ns#"
   xmlns:rdf="http://www.w3.org/1999/02/22-rdf-syntax-ns#"
   xmlns:svg="http://www.w3.org/2000/svg"
   xmlns="http://www.w3.org/2000/svg"
   xmlns:sodipodi="http://sodipodi.sourceforge.net/DTD/sodipodi-0.dtd"
   xmlns:inkscape="http://www.inkscape.org/namespaces/inkscape"
   version="1.1"
   x="0px"
   y="0px"
   viewBox="0 0 1711.2 1846.7"
   style="enable-background:new 0 0 1711.2 1846.7;"
   xml:space="preserve"
   id="svg194"
   sodipodi:docname="covid-19sankey2!.svg"
   inkscape:version="1.1-dev (ddb55ca, 2020-02-02)"><metadata
   id="metadata200"><rdf:RDF><cc:Work
       rdf:about=""><dc:format>image/svg+xml</dc:format><dc:type
         rdf:resource="http://purl.org/dc/dcmitype/StillImage" /></cc:Work></rdf:RDF></metadata><defs
   id="defs198" /><sodipodi:namedview
   pagecolor="#ffffff"
   bordercolor="#666666"
   borderopacity="1"
   objecttolerance="10"
   gridtolerance="10"
   guidetolerance="10"
   inkscape:pageopacity="0"
   inkscape:pageshadow="2"
   inkscape:window-width="1376"
   inkscape:window-height="763"
   id="namedview196"
   showgrid="false"
   inkscape:zoom="0.54097744"
   inkscape:cx="893.23206"
   inkscape:cy="1145.1455"
   inkscape:window-x="0"
   inkscape:window-y="23"
   inkscape:window-maximized="0"
   inkscape:current-layer="text" />
<style
   type="text/css"
   id="style10">
	.st0{opacity:0.9;fill:#4B7B35;}
	.st1{opacity:0.9;fill:#A4D090;}
	.st2{opacity:0.9;fill:#699753;}
	.st3{opacity:0.9;fill:#86B472;}
	.st4{opacity:0.9;fill:#C2EDAE;}
	.st5{fill:#020202;}
	.st6{font-family:'ArialMT';}
	.st7{font-size:42.2784px;}
	.st8{fill:none;}
	.st9{font-size:26px;}
	.st10{font-size:19px;}
	.st11{font-size:16px;}
	.st12{font-size:21px;}
</style>
<g
   id="sankey_svg">
	<title
   id="title12">MN COVID-19 relief package</title>
	<title
   id="title14">MN COVID-19 relief package</title>
	<path
   class="st0"
   d="M1027.3,1609.2H698.8c0-197-0.3-383.1-0.5-563.1c-0.2-180-0.5-366.2-0.5-563.4h328.5   c0,197,0.3,383.1,0.5,563.1C1027.1,1225.8,1027.3,1412,1027.3,1609.2z"
   id="path16"
   style="stroke:#008000;fill:#00aa00" />
	<path
   class="st1"
   d="M438.2,987.7h-1.1v-10.2h1.1c38.2,0,72.5-13,96.7-36.6c25.1-24.5,38.4-58.6,38.4-98.5V482.9h10.2v359.5   c0,42.8-14.3,79.4-41.5,105.8C515.9,973.7,479.1,987.7,438.2,987.7z"
   id="path18"
   style="fill:#008033" />
	<path
   class="st2"
   d="M385.9,1512.8h-2.2v-65.7h2.2c68.1,0,130.3-23.7,175.1-66.8c47-45.1,71.8-107.4,71.8-180.2V482.7h65.7v717.5   c0,45.8-8.2,89-24.5,128.2c-15.7,37.9-38.4,71.3-67.6,99.3C549.4,1482.6,471,1512.8,385.9,1512.8z"
   id="path20"
   style="fill:#2ca05a" />
	<path
   class="st3"
   d="M386.1,1299.2h-1.8v-49.3h1.8c54.4,0,104.1-19,140-53.4c37.6-36.1,57.5-85.9,57.5-144.1V482.9h49.3v569.6   c0,36.2-6.5,70.3-19.3,101.3c-12.4,29.9-30.3,56.3-53.3,78.4C515.1,1275.4,453.3,1299.2,386.1,1299.2z"
   id="path22"
   style="fill:#5fd35f" />
	<path
   class="st1"
   d="M1234.8,1080.8h-1.1c-40.7,0-78.2-14.4-105.4-40.6c-28.3-27.1-43.8-65.7-43.8-108.7V482.7h18.1v448.9   c0,38.5,13.2,71.6,38.3,95.6c23.9,22.9,56.8,35.5,92.9,35.5h1.1V1080.8z"
   id="path24"
   style="fill:#37c837" />
	<path
   class="st4"
   d="M1199.1,911.4h-0.7c-55.5,0-95.8-40.3-95.8-95.8V482.7h12v332.9c0,24.6,8.5,45.8,24.5,61.1   c15.2,14.6,36.3,22.7,59.4,22.7h0.7V911.4z"
   id="path26"
   style="fill:#008033" />
	<path
   class="st2"
   d="M1329.9,1501.7h-2.2c-82.2,0-157.9-29.1-212.9-82c-28-26.9-49.9-59.1-65-95.6c-15.7-37.9-23.6-79.6-23.6-124   V482.7h43.5v717.5c0,75.8,26,140.9,75.3,188.2c46.9,45,111.8,69.8,182.8,69.8h2.2V1501.7z"
   id="path28"
   style="fill:#8dd35f" />
	<path
   class="st3"
   d="M1300.9,1281.8h-1.8c-62.7,0-120.3-22.1-162.2-62.3c-21.3-20.4-37.9-44.8-49.3-72.5c-12-28.9-18-60.8-18-94.7   V482.7h14.8v569.6c0,63,21.7,117.1,62.8,156.5c39.1,37.5,93,58.2,151.9,58.2h1.8V1281.8z"
   id="path30"
   style="fill:#00aa44" />
	<rect
   x="432.4"
   y="933.4"
   class="st5"
   width="4.1"
   height="97.4"
   id="rect32" />
	
		<rect
   x="838.6"
   y="147.6"
   transform="matrix(6.123234e-17 -1 1 6.123234e-17 359.9653 1321.3042)"
   class="st5"
   width="4.1"
   height="666.1"
   id="rect34" />
	<rect
   x="379.4"
   y="1226.2"
   class="st5"
   width="4.1"
   height="97.4"
   id="rect36" />
	<rect
   x="1199.2"
   y="854.5"
   class="st5"
   width="4.1"
   height="97.4"
   id="rect38" />
	<rect
   x="1234.9"
   y="1021.6"
   class="st5"
   width="4.1"
   height="97.4"
   id="rect40" />
	<rect
   x="1300.9"
   y="1227"
   class="st5"
   width="4.1"
   height="97.4"
   id="rect42" />
	<rect
   x="1329.9"
   y="1430.1"
   class="st5"
   width="4.1"
   height="97.4"
   id="rect44" />
	<rect
   x="624.3"
   y="1607.2"
   class="st5"
   width="476.4"
   height="4.1"
   id="rect46" />
</g>
<g
   id="text">
	<text
   xml:space="preserve"
   class="st6 st7"
   id="text49"
   style="font-style:normal;font-variant:normal;font-weight:normal;font-stretch:normal;font-size:37.3333px;font-family:ArialMT;-inkscape-font-specification:'ArialMT Normal';font-variant-ligatures:normal;font-variant-caps:normal;font-variant-numeric:normal;font-variant-east-asian:normal;inline-size:577.349"
   x="527.79736"
   y="307.75217"><tspan
     sodipodi:role="line"
     x="527.79736"
     y="307.75217"><tspan>What's inside the $330 million </tspan><tspan
       dx="13.125" /></tspan><tspan
     sodipodi:role="line"
     x="527.79736"
     y="354.41879"><tspan>covid-19 relief bill?</tspan></tspan></text>
	<rect
   x="575"
   y="384.1"
   class="st8"
   width="538.5"
   height="94.6"
   id="rect51" />
	<text
   id="text61"
   x="538.2428"
   y="400.85361"><tspan
     x="538.2428"
     y="400.85361"
     class="st6 st9"
     id="tspan53">Lorem ipsum dolor sit amet, consectetuer </tspan><tspan
     x="538.2428"
     y="432.05362"
     class="st6 st9"
     id="tspan55">adipiscing elit, sed diam nonummy nibh euis</tspan><tspan
     x="1046.9427"
     y="432.05362"
     class="st6 st9"
     id="tspan57">-</tspan><tspan
     x="538.2428"
     y="463.2536"
     class="st6 st9"
     id="tspan59">mod tincidunt ut laoreet dolore magna aliquam </tspan></text>
	<rect
   x="216.8"
   y="933.5"
   class="st8"
   width="208.1"
   height="34.1"
   id="rect63" />
	<text
   class="st6 st10"
   id="text65"
   x="166.81979"
   y="947.11682">Military Veterans: $6.2 mil</text>
	<rect
   x="217.6"
   y="962.6"
   class="st8"
   width="200.1"
   height="71.5"
   id="rect67" />
	<text
   y="974.10327"
   x="193.60249"
   id="text77"><tspan
     x="193.60249"
     y="974.10327"
     class="st6 st11"
     id="tspan69">Lorem ipsum dolor sit amet, </tspan><tspan
     x="193.60249"
     y="993.30328"
     class="st6 st11"
     id="tspan71">consectetuer adipiscing elit, </tspan><tspan
     x="193.60249"
     y="1012.5033"
     class="st6 st11"
     id="tspan73">sed diam nonummy nibh </tspan><tspan
     x="193.60249"
     y="1031.7032"
     class="st6 st11"
     id="tspan75">euismod tincidunt ut laoreet </tspan></text>
	<rect
   x="166.7"
   y="1225"
   class="st8"
   width="208.1"
   height="34.1"
   id="rect79" />
	<text
   style="text-align:end;text-anchor:end"
   y="1240.0709"
   x="367.64612"
   class="st6 st12"
   id="text81">Child care: $30 million </text>
	<rect
   x="167.5"
   y="1254.2"
   class="st8"
   width="200.1"
   height="71.5"
   id="rect83" />
	<text
   style="inline-size:147.788"
   y="1268.0458"
   x="237.36871"
   id="text93"
   xml:space="preserve"><tspan
     sodipodi:role="line"
     x="237.36871"
     y="1268.0458"><tspan
       style="font-style:normal;font-variant:normal;font-weight:normal;font-stretch:normal;font-size:18.6667px;font-family:ArialMT;-inkscape-font-specification:'ArialMT Normal';font-variant-ligatures:normal;font-variant-caps:normal;font-variant-numeric:normal;font-variant-east-asian:normal">dsdsd</tspan></tspan></text>
	<rect
   x="378.9"
   y="1432.1"
   class="st5"
   width="4.1"
   height="97.4"
   id="rect95" />
	<rect
   x="166.1"
   y="1431"
   class="st8"
   width="208.1"
   height="34.1"
   id="rect97" />
	<text
   style="text-align:end;text-anchor:end"
   y="1445.0404"
   x="365.97461"
   class="st6 st12"
   id="text99">Small businesses  $40 million </text>
	<rect
   x="166.9"
   y="1460.1"
   class="st8"
   width="200.1"
   height="71.5"
   id="rect101" />
	<text
   y="1471.5604"
   x="142.76422"
   id="text111"><tspan
     x="142.76422"
     y="1471.5604"
     class="st6 st11"
     id="tspan103">Lorem ipsum dolor sit amet, </tspan><tspan
     x="142.76422"
     y="1490.7604"
     class="st6 st11"
     id="tspan105">consectetuer adipiscing elit, </tspan><tspan
     x="142.76422"
     y="1509.9604"
     class="st6 st11"
     id="tspan107">sed diam nonummy nibh </tspan><tspan
     x="142.76422"
     y="1529.1604"
     class="st6 st11"
     id="tspan109">euismod tincidunt ut laoreet </tspan></text>
	<rect
   x="697.1"
   y="1627.5"
   class="st8"
   width="330.2"
   height="34.1"
   id="rect113" />
	<text
   transform="translate(697.1298,1642.5586)"
   class="st6 st12"
   id="text115">Lorem ipsum dolor sit - $200 mil </text>
	<rect
   x="697.7"
   y="1656.7"
   class="st8"
   width="329.7"
   height="71.5"
   id="rect117" />
	<text
   transform="matrix(1 0 0 1 697.6525 1668.1133)"
   id="text127"><tspan
     x="0"
     y="0"
     class="st6 st11"
     id="tspan119">Lorem ipsum dolor sit amet, consectetuer </tspan><tspan
     x="0"
     y="19.2"
     class="st6 st11"
     id="tspan121">adipiscing elit, sed diam nonummy nibh euis</tspan><tspan
     x="313.1"
     y="19.2"
     class="st6 st11"
     id="tspan123">-</tspan><tspan
     x="0"
     y="38.4"
     class="st6 st11"
     id="tspan125">mod tincidunt ut laoreet dolore magna aliquam </tspan></text>
	<rect
   x="1213"
   y="854.6"
   class="st8"
   width="208.1"
   height="34.1"
   id="rect129" />
	<text
   transform="translate(1213.0345,869.6279)"
   class="st6 st12"
   id="text131">$7.3 mill: miscellaneous </text>
	<rect
   x="1213.8"
   y="883.7"
   class="st8"
   width="200.1"
   height="71.5"
   id="rect133" />
	<text
   transform="matrix(1 0 0 1 1213.8174 895.1826)"
   id="text143"><tspan
     x="0"
     y="0"
     class="st6 st11"
     id="tspan135">Lorem ipsum dolor sit amet, </tspan><tspan
     x="0"
     y="19.2"
     class="st6 st11"
     id="tspan137">consectetuer adipiscing elit, </tspan><tspan
     x="0"
     y="38.4"
     class="st6 st11"
     id="tspan139">sed diam nonummy nibh </tspan><tspan
     x="0"
     y="57.6"
     class="st6 st11"
     id="tspan141">euismod tincidunt ut laoreet </tspan></text>
	<rect
   x="1250"
   y="1021.8"
   class="st8"
   width="208.1"
   height="34.1"
   id="rect145" />
	<text
   transform="translate(1250.0139,1036.79)"
   class="st6 st12"
   id="text147">$11 million: tribal nations </text>
	<rect
   x="1250.8"
   y="1050.9"
   class="st8"
   width="200.1"
   height="71.5"
   id="rect149" />
	<text
   transform="matrix(1 0 0 1 1250.7968 1062.3447)"
   id="text159"><tspan
     x="0"
     y="0"
     class="st6 st11"
     id="tspan151">Lorem ipsum dolor sit amet, </tspan><tspan
     x="0"
     y="19.2"
     class="st6 st11"
     id="tspan153">consectetuer adipiscing elit, </tspan><tspan
     x="0"
     y="38.4"
     class="st6 st11"
     id="tspan155">sed diam nonummy nibh </tspan><tspan
     x="0"
     y="57.6"
     class="st6 st11"
     id="tspan157">euismod tincidunt ut laoreet </tspan></text>
	<rect
   x="1319.7"
   y="1227"
   class="st8"
   width="208.1"
   height="34.1"
   id="rect161" />
	<text
   transform="translate(1319.7269,1242.0188)"
   class="st6 st12"
   id="text163">Food shelves: $9 million  </text>
	<rect
   x="1320.5"
   y="1256.1"
   class="st8"
   width="200.1"
   height="71.5"
   id="rect165" />
	<text
   transform="matrix(1 0 0 1 1320.5098 1267.5736)"
   id="text175"><tspan
     x="0"
     y="0"
     class="st6 st11"
     id="tspan167">Lorem ipsum dolor sit amet, </tspan><tspan
     x="0"
     y="19.2"
     class="st6 st11"
     id="tspan169">consectetuer adipiscing elit, </tspan><tspan
     x="0"
     y="38.4"
     class="st6 st11"
     id="tspan171">sed diam nonummy nibh </tspan><tspan
     x="0"
     y="57.6"
     class="st6 st11"
     id="tspan173">euismod tincidunt ut laoreet </tspan></text>
	<rect
   x="1348.7"
   y="1430.1"
   class="st8"
   width="208.1"
   height="34.1"
   id="rect177" />
	<text
   transform="translate(1348.7317,1445.1827)"
   class="st6 st12"
   id="text179">$26.5 million: emergency housing </text>
	<rect
   x="1349.5"
   y="1459.3"
   class="st8"
   width="200.1"
   height="71.5"
   id="rect181" />
	<text
   transform="matrix(1 0 0 1 1349.5145 1470.7374)"
   id="text191"><tspan
     x="0"
     y="0"
     class="st6 st11"
     id="tspan183">Lorem ipsum dolor sit amet, </tspan><tspan
     x="0"
     y="19.2"
     class="st6 st11"
     id="tspan185">consectetuer adipiscing elit, </tspan><tspan
     x="0"
     y="38.4"
     class="st6 st11"
     id="tspan187">sed diam nonummy nibh </tspan><tspan
     x="0"
     y="57.6"
     class="st6 st11"
     id="tspan189">euismod tincidunt ut laoreet </tspan></text>
</g>
</svg>
